<?xml version="1.0" encoding="UTF-8"?>
<svg width="752pt" height="752pt" version="1.1" viewBox="0 0 752 752" xmlns="http://www.w3.org/2000/svg">
 <g>
  <path d="m394.95 335.75h-17.996c-0.94531-3.3164-2.3672-6.6289-4.7344-9.4727l22.73 0.003906c3.7891 0 7.1055-3.3164 7.1055-7.1055s-3.3164-7.1055-7.1055-7.1055h-85.246c-3.7891 0-7.1055 3.3164-7.1055 7.1055s3.3164 7.1055 7.1055 7.1055h27.469c14.68 0 21.312 3.7891 24.625 9.4727l-52.094-0.003906c-3.7891 0-7.1055 3.3164-7.1055 7.1055 0 3.7891 3.3164 7.1055 7.1055 7.1055h54.461c-0.47266 9.9453-4.7344 18.941-26.992 18.941h-27.469c-2.8398 0-5.6836 1.8945-6.6289 4.2617-0.94531 2.8398-0.47266 5.6836 1.4219 7.5781l56.828 56.828c1.4219 1.4219 3.3164 1.8945 5.2109 1.8945s3.7891-0.47266 5.2109-1.8945c2.8398-2.8398 2.8398-7.1055 0-9.9453l-44.516-44.516h9.9453c34.098 0 40.727-19.891 41.203-33.152h16.57c3.7891 0 7.1055-3.3164 7.1055-7.1055-0.003906-3.7852-3.3164-7.1016-7.1055-7.1016z"/>
  <path d="m582.01 533.23h-364.66c-3.7891 0-7.1055-3.3164-7.1055-7.1055s3.3164-7.1055 7.1055-7.1055l357.55 0.003907v-198.9c0-3.7891 3.3164-7.1055 7.1055-7.1055 3.7891 0 7.1055 3.3164 7.1055 7.1055v206.01c-0.003907 4.2617-3.3203 7.1016-7.1094 7.1016z"/>
  <path d="m558.33 509.55h-364.66c-3.7891 0-7.1055-3.3164-7.1055-7.1055 0-3.7891 3.3164-7.1055 7.1055-7.1055l357.55 0.003906v-198.9c0-3.7891 3.3164-7.1055 7.1055-7.1055 3.7891 0 7.1055 3.3164 7.1055 7.1055v206.01c-0.003906 4.2617-3.3203 7.1016-7.1055 7.1016z"/>
  <path d="m534.65 485.87h-364.66c-3.7891 0-7.1055-3.3164-7.1055-7.1055v-206c0-3.7891 3.3164-7.1055 7.1055-7.1055h364.66c3.7891 0 7.1055 3.3164 7.1055 7.1055v206.01c-0.003906 4.2617-3.3164 7.1016-7.1055 7.1016zm-357.55-14.207h350.45v-191.32h-350.45z"/>
  <path d="m255.24 376c0-28.887 12.312-54.461 32.203-71.984h-79.562c-3.7891 0-7.1055 3.3164-7.1055 7.1055v130.23c0 3.7891 3.3164 7.1055 7.1055 7.1055h79.562c-19.891-17.996-32.203-43.57-32.203-72.461z"/>
  <path d="m496.77 304.02h-79.562c19.891 17.996 32.203 43.57 32.203 71.984s-12.312 54.461-32.203 71.984h79.562c3.7891 0 7.1055-3.3164 7.1055-7.1055l-0.003906-130.23c0-3.7891-3.3125-6.6328-7.1016-6.6328z"/>
 </g>
</svg>
